<svg viewBox="0 0 91 88" fill="none" xmlns="http://www.w3.org/2000/svg"><path d="M25.755 25.756H0v61.811h22.32V56.662L13.737 34.34l12.019-6.868.328-.143c.816-.357.562-1.574-.328-1.574z" fill="#fff"/><path d="M25.755 20.604H0V0h25.755C44.642 0 51.51 14.594 51.51 27.472c0 10.302-5.724 14.594-8.585 15.453l17.17 44.641H38.631L20.604 37.774l4.143-2.763c.657-.438 1.434-.646 2.212-.78 2.395-.416 5.664-2.117 5.664-6.76 0-5.494-4.579-6.867-6.868-6.867z" fill="#fff"/><path d="M91 0v87.566H68.68V46.358L58.376 66.963l-8.585-22.32c2.862-2.862 7.727-8.585 7.727-15.453 0-6.868-1.431-13.736-2.576-15.453L61.811 0H91z" fill="#fff"/></svg>