<svg viewBox="0 0 20 18" fill="none" xmlns="http://www.w3.org/2000/svg"><path d="M19.414 1.382h-2.93V.796a.58.58 0 00-.586-.586.58.58 0 00-.586.586v.586h-2.969V.796a.58.58 0 00-.585-.586.58.58 0 00-.586.586v.586h-2.93V.796A.58.58 0 007.656.21a.58.58 0 00-.586.586v.586H4.14a.58.58 0 00-.586.586v1.758H20V1.968a.58.58 0 00-.586-.586zM17.026 15.036c-.318.265-.717.41-1.128.41H3.554v1.757c0 .324.262.586.586.586h15.274a.586.586 0 00.586-.586v-6.568c-1.13 2.772-2.706 4.177-2.974 4.401z" /><path fill-rule="evenodd" clip-rule="evenodd" d="M15.898 14.274H.585a.585.585 0 01-.376-1.035c.032-.027 3.122-2.685 3.325-8.34H19.98c-.204 6.23-3.56 9.116-3.706 9.239a.587.587 0 01-.376.136zm-5.46-7.302h1.254a10.613 10.613 0 01-2.06 5.122l-.069.091H8.185l.48-.642a8.838 8.838 0 001.582-3.538L10.21 8l-1.691.625.041-.081c.162-.314.267-.654.309-1.005l1.569-.567z"/></svg>
