<svg width="27" height="29" viewBox="0 0 27 29" fill="none" xmlns="http://www.w3.org/2000/svg">
<path d="M2.37302 14.9818L3.35744 13.985L15.3861 1.80925C17.7693 -0.603084 21.6471 -0.603084 24.0303 1.80925C26.3375 4.14479 26.4046 7.89362 24.2459 10.319C24.2128 10.362 24.1829 10.4063 24.1442 10.4452L13.8983 20.8173C12.2755 22.4591 9.63544 22.4594 8.01289 20.8173C6.38972 19.1742 6.38972 16.5015 8.01195 14.8591L13.8769 8.92261C14.4436 8.34869 15.3631 8.349 15.9298 8.92261C16.4971 9.49622 16.4974 10.4264 15.9298 11.0007L10.0652 16.9372C9.57405 17.4346 9.57405 18.2431 10.0655 18.7396C10.5569 19.237 11.3556 19.237 11.8461 18.7396L21.9786 8.48221C23.2303 7.21486 23.23 5.15402 21.9786 3.88634C20.7263 2.61963 18.6907 2.61963 17.439 3.88634L5.41065 16.0627L4.4256 17.0592C2.3938 19.1159 2.3938 22.4629 4.4256 24.5193C6.45709 26.576 9.76325 26.576 11.7954 24.5193L24.5223 11.6374C25.089 11.0638 26.0079 11.0634 26.5749 11.6374C27.1419 12.211 27.1415 13.1415 26.5749 13.7154L13.8483 26.5977C10.6844 29.8003 5.53689 29.8009 2.37302 26.5986C-0.791164 23.3953 -0.79085 18.1841 2.37302 14.9818Z" fill="white"/>
</svg>
