<svg viewBox="0 0 20 20" fill="none" xmlns="http://www.w3.org/2000/svg"><path d="M19.414 17.54h-.703v-1.915a.586.586 0 00-.586-.586h-2.5a.586.586 0 00-.586.586v1.914h-1.328v-6.914a.586.586 0 00-.586-.586h-2.5a.586.586 0 00-.586.586v6.914H8.711V5.625a.586.586 0 00-.586-.586h-2.5a.586.586 0 00-.586.586v11.914H2.461v-1.328h.664a.586.586 0 100-1.172h-.664v-1.328h.664a.586.586 0 100-1.172h-.664v-1.328h.664a.586.586 0 100-1.172h-.664V8.711h.664a.586.586 0 000-1.172h-.664V6.211h.664a.586.586 0 000-1.172h-.664V3.711h.664a.586.586 0 000-1.172h-.664V.586a.586.586 0 00-1.172 0v16.953H.586a.586.586 0 100 1.172h.703v.703a.586.586 0 001.172 0v-.703h16.953a.586.586 0 100-1.172zM16.104 10.683a.586.586 0 00.146 1.153c1.316 0 1.33.015 1.474-.045a.587.587 0 00.344-.398c.026-.105.018-.04.018-1.393a.586.586 0 00-1.153-.146L7.289.172A.586.586 0 006.461 1l9.643 9.683z"/></svg>
