<svg viewBox="0 0 20 20" fill="none" xmlns="http://www.w3.org/2000/svg"><path d="M10 8.279a1.76 1.76 0 00-1.758 1.757c0 .97.788 1.758 1.758 1.758a1.76 1.76 0 001.757-1.758A1.76 1.76 0 0010 8.28zm0 2.343a.586.586 0 110-1.172.586.586 0 010 1.172z"/><path d="M12.328 11.794A2.917 2.917 0 0110 12.966a2.917 2.917 0 01-2.33-1.172H6.3a4.099 4.099 0 003.7 2.344c1.605 0 3.03-.935 3.7-2.344h-1.372zM7.13 9.45H.295A.296.296 0 000 9.747v.62c0 .141.114.255.255.255h6.874a2.928 2.928 0 010-1.172zM19.648 9.45H12.87a2.932 2.932 0 010 1.172h6.809a.32.32 0 00.32-.32v-.5a.352.352 0 00-.351-.352zM10 1.248c-4.173 0-7.78 2.99-8.604 7.03H7.67A2.917 2.917 0 0110 7.108c.953 0 1.793.464 2.328 1.172h6.276C17.779 4.238 14.173 1.248 10 1.248z"/><path d="M19.013 13.135l-.4-1.34h-3.66A5.26 5.26 0 0110 15.31a5.26 5.26 0 01-4.953-3.516H1.005l1.034 1.395-.53.305a.586.586 0 00-.03.996l1.918 1.267-.393.468a.586.586 0 00.312.947l2.235.534-.209.574a.586.586 0 00.617.782l2.283-.262v.611c0 .433.455.72.848.524l2.055-1.027.209.574a.586.586 0 00.976.203l1.58-1.669.392.469a.587.587 0 00.987-.144l.914-2.108.529.306a.587.587 0 00.878-.472l.138-2.293.602.105c.415.08.79-.32.663-.744zM4.802.258a2.905 2.905 0 00-2.578.097A2.911 2.911 0 00.722 2.454L.009 6.382c-.047.278.137.572.488.653C1.389 4.18 3.534 1.9 6.247.783L4.802.258zM19.167 3.216a2.154 2.154 0 00-1.801-.45l-.448.09a9.962 9.962 0 012.38 3.593c.408-.395.702-.945.702-1.555 0-.653-.328-1.264-.833-1.678z"/></svg>
