<svg viewBox="0 0 20 20" fill="none" xmlns="http://www.w3.org/2000/svg"><path d="M18.242 4.726h-2.969V7.07H20v-.586a1.76 1.76 0 00-1.758-1.758zM15.273 9.414v5.898h2.97A1.76 1.76 0 0020 13.554v-4.14h-4.727zM8.496 1.008L7.397.128a.588.588 0 00-.732 0l-1.099.88L4.688.02v4.706h4.687V.02l-.879.988zM10.547 5.898H3.516V7.07h7.03V5.898z"/><path d="M12.305 2.383h-1.758v2.343h.586c.324 0 .586.262.586.586v2.344a.586.586 0 01-.586.586H2.93a.586.586 0 01-.586-.586V5.312c0-.324.262-.586.586-.586h.586V2.383H1.758A1.76 1.76 0 000 4.14v14.102C0 19.212.789 20 1.758 20h10.547a1.76 1.76 0 001.758-1.758V4.14a1.76 1.76 0 00-1.758-1.757zm-8.79 15.273a.586.586 0 110-1.172.586.586 0 010 1.172zm0-2.344a.586.586 0 110-1.172.586.586 0 010 1.172zm0-2.343a.586.586 0 110-1.172.586.586 0 010 1.171zm.587-2.383H2.93a.586.586 0 110-1.172h1.172a.586.586 0 110 1.172zm2.93 7.07a.586.586 0 110-1.172.586.586 0 010 1.172zm0-2.344a.586.586 0 110-1.172.586.586 0 010 1.172zm0-2.343a.586.586 0 110-1.172.586.586 0 010 1.171zm.585-2.383H6.445a.586.586 0 110-1.172h1.172a.586.586 0 110 1.172zm2.93 7.07a.586.586 0 110-1.172.586.586 0 010 1.172zm0-2.344a.586.586 0 110-1.172.586.586 0 010 1.172zm0-2.343a.586.586 0 110-1.172.586.586 0 010 1.171zm.586-2.383H9.96a.586.586 0 110-1.172h1.172a.586.586 0 110 1.172z"/></svg>
