<svg viewBox="0 0 20 12" fill="none" xmlns="http://www.w3.org/2000/svg"><path d="M19.869 5.394a.59.59 0 00-.46-.219h-1.4V2.614c0-.836-.68-1.515-1.516-1.515h-1.525l.048-.262a.59.59 0 00-.581-.696H2.195a.59.59 0 00-.581.484l-.602 3.3h7.743a.59.59 0 110 1.181H.797L.01 9.421a.591.591 0 00.58.697h1.29a2.167 2.167 0 002.117 1.717c1.04 0 1.91-.738 2.117-1.717h7.456a2.167 2.167 0 002.117 1.717c1.04 0 1.91-.738 2.117-1.717h.803a.591.591 0 00.579-.473l.801-3.756a.59.59 0 00-.118-.495zm-3.2 4.278a.983.983 0 01-1.964 0 .983.983 0 011.964 0zm-11.69 0a.983.983 0 01-1.964 0 .983.983 0 011.964 0zM16.493 2.28c.184 0 .334.15.334.334v2.561h-2.602l.527-2.895h1.74zM7.42 3.382H4.59a.59.59 0 110-1.181h2.83a.59.59 0 110 1.18zm-4.9 2.307H4.52a.59.59 0 110 1.182H2.522a.59.59 0 110-1.182z"/></svg>
